<mxfile host="app.diagrams.net" agent="Mozilla/5.0 (Windows NT 10.0; Win64; x64) AppleWebKit/537.36 (KHTML, like Gecko) Chrome/135.0.0.0 Safari/537.36" version="26.2.13">
  <diagram name="Page-1" id="HQKYtN91ihchyh2LCqcL">
    <mxGraphModel dx="1471" dy="783" grid="1" gridSize="10" guides="1" tooltips="1" connect="1" arrows="1" fold="1" page="1" pageScale="1" pageWidth="850" pageHeight="1100" math="0" shadow="0">
      <root>
        <mxCell id="0" />
        <mxCell id="1" parent="0" />
        <mxCell id="mGn2gmwvMU52tjO0ZWeU-1" value="customer" style="shape=umlActor;verticalLabelPosition=bottom;verticalAlign=top;html=1;outlineConnect=0;" parent="1" vertex="1">
          <mxGeometry x="60" y="260" width="30" height="60" as="geometry" />
        </mxCell>
        <mxCell id="mGn2gmwvMU52tjO0ZWeU-3" value="staff" style="shape=umlActor;verticalLabelPosition=bottom;verticalAlign=top;html=1;outlineConnect=0;" parent="1" vertex="1">
          <mxGeometry x="790" y="250" width="30" height="60" as="geometry" />
        </mxCell>
        <mxCell id="mGn2gmwvMU52tjO0ZWeU-8" value="" style="endArrow=none;html=1;rounded=0;entryX=0;entryY=0.5;entryDx=0;entryDy=0;" parent="1" source="mGn2gmwvMU52tjO0ZWeU-1" target="mGn2gmwvMU52tjO0ZWeU-2" edge="1">
          <mxGeometry width="50" height="50" relative="1" as="geometry">
            <mxPoint x="400" y="280" as="sourcePoint" />
            <mxPoint x="450" y="230" as="targetPoint" />
            <Array as="points" />
          </mxGeometry>
        </mxCell>
        <mxCell id="mGn2gmwvMU52tjO0ZWeU-9" value="" style="endArrow=none;html=1;rounded=0;" parent="1" source="mGn2gmwvMU52tjO0ZWeU-1" target="mGn2gmwvMU52tjO0ZWeU-6" edge="1">
          <mxGeometry width="50" height="50" relative="1" as="geometry">
            <mxPoint x="400" y="280" as="sourcePoint" />
            <mxPoint x="450" y="230" as="targetPoint" />
          </mxGeometry>
        </mxCell>
        <mxCell id="mGn2gmwvMU52tjO0ZWeU-11" value="" style="endArrow=none;html=1;rounded=0;" parent="1" source="mGn2gmwvMU52tjO0ZWeU-1" target="mGn2gmwvMU52tjO0ZWeU-10" edge="1">
          <mxGeometry width="50" height="50" relative="1" as="geometry">
            <mxPoint x="400" y="380" as="sourcePoint" />
            <mxPoint x="450" y="330" as="targetPoint" />
          </mxGeometry>
        </mxCell>
        <mxCell id="mGn2gmwvMU52tjO0ZWeU-15" value="admin" style="shape=umlActor;verticalLabelPosition=bottom;verticalAlign=top;html=1;outlineConnect=0;" parent="1" vertex="1">
          <mxGeometry x="60" y="520" width="30" height="60" as="geometry" />
        </mxCell>
        <mxCell id="mGn2gmwvMU52tjO0ZWeU-19" value="" style="endArrow=none;html=1;rounded=0;" parent="1" source="mGn2gmwvMU52tjO0ZWeU-12" target="mGn2gmwvMU52tjO0ZWeU-3" edge="1">
          <mxGeometry width="50" height="50" relative="1" as="geometry">
            <mxPoint x="440" y="460" as="sourcePoint" />
            <mxPoint x="490" y="410" as="targetPoint" />
          </mxGeometry>
        </mxCell>
        <mxCell id="mGn2gmwvMU52tjO0ZWeU-20" value="" style="endArrow=none;html=1;rounded=0;" parent="1" source="mGn2gmwvMU52tjO0ZWeU-13" target="mGn2gmwvMU52tjO0ZWeU-3" edge="1">
          <mxGeometry width="50" height="50" relative="1" as="geometry">
            <mxPoint x="440" y="460" as="sourcePoint" />
            <mxPoint x="490" y="410" as="targetPoint" />
          </mxGeometry>
        </mxCell>
        <mxCell id="mGn2gmwvMU52tjO0ZWeU-22" value="" style="endArrow=none;html=1;rounded=0;" parent="1" source="mGn2gmwvMU52tjO0ZWeU-15" target="mGn2gmwvMU52tjO0ZWeU-14" edge="1">
          <mxGeometry width="50" height="50" relative="1" as="geometry">
            <mxPoint x="440" y="460" as="sourcePoint" />
            <mxPoint x="490" y="410" as="targetPoint" />
          </mxGeometry>
        </mxCell>
        <mxCell id="mGn2gmwvMU52tjO0ZWeU-27" value="" style="swimlane;startSize=0;" parent="1" vertex="1">
          <mxGeometry x="180" y="50" width="560" height="590" as="geometry" />
        </mxCell>
        <mxCell id="mGn2gmwvMU52tjO0ZWeU-28" value="Sistem Informasi perhitungan tarif kargo" style="text;html=1;align=center;verticalAlign=middle;whiteSpace=wrap;rounded=0;" parent="mGn2gmwvMU52tjO0ZWeU-27" vertex="1">
          <mxGeometry x="155" width="250" height="30" as="geometry" />
        </mxCell>
        <mxCell id="mGn2gmwvMU52tjO0ZWeU-12" value="vertifikasi pesanan" style="ellipse;whiteSpace=wrap;html=1;" parent="mGn2gmwvMU52tjO0ZWeU-27" vertex="1">
          <mxGeometry x="310" y="130" width="120" height="80" as="geometry" />
        </mxCell>
        <mxCell id="mGn2gmwvMU52tjO0ZWeU-13" value="bukti pesanan" style="ellipse;whiteSpace=wrap;html=1;" parent="mGn2gmwvMU52tjO0ZWeU-27" vertex="1">
          <mxGeometry x="310" y="270" width="120" height="80" as="geometry" />
        </mxCell>
        <mxCell id="mGn2gmwvMU52tjO0ZWeU-2" value="login / pendaftaran" style="ellipse;whiteSpace=wrap;html=1;" parent="mGn2gmwvMU52tjO0ZWeU-27" vertex="1">
          <mxGeometry x="100" y="90" width="120" height="80" as="geometry" />
        </mxCell>
        <mxCell id="mGn2gmwvMU52tjO0ZWeU-6" value="buat pesanan" style="ellipse;whiteSpace=wrap;html=1;" parent="mGn2gmwvMU52tjO0ZWeU-27" vertex="1">
          <mxGeometry x="100" y="210" width="120" height="80" as="geometry" />
        </mxCell>
        <mxCell id="mGn2gmwvMU52tjO0ZWeU-10" value="history" style="ellipse;whiteSpace=wrap;html=1;" parent="mGn2gmwvMU52tjO0ZWeU-27" vertex="1">
          <mxGeometry x="100" y="330" width="120" height="80" as="geometry" />
        </mxCell>
        <mxCell id="mGn2gmwvMU52tjO0ZWeU-14" value="laporan keuangan" style="ellipse;whiteSpace=wrap;html=1;" parent="mGn2gmwvMU52tjO0ZWeU-27" vertex="1">
          <mxGeometry x="100" y="460" width="120" height="80" as="geometry" />
        </mxCell>
        <mxCell id="yR1lGqXbRZesA1Uw0zJt-8" value="&amp;lt; extend &amp;gt;" style="endArrow=open;endSize=12;dashed=1;html=1;rounded=0;exitX=0.5;exitY=1;exitDx=0;exitDy=0;entryX=0.5;entryY=0;entryDx=0;entryDy=0;" edge="1" parent="mGn2gmwvMU52tjO0ZWeU-27" source="mGn2gmwvMU52tjO0ZWeU-12" target="mGn2gmwvMU52tjO0ZWeU-13">
          <mxGeometry width="160" relative="1" as="geometry">
            <mxPoint x="210" y="350" as="sourcePoint" />
            <mxPoint x="370" y="350" as="targetPoint" />
          </mxGeometry>
        </mxCell>
        <mxCell id="yR1lGqXbRZesA1Uw0zJt-9" value="&amp;lt; include &amp;gt;" style="endArrow=open;endSize=12;dashed=1;html=1;rounded=0;exitX=0.5;exitY=0;exitDx=0;exitDy=0;entryX=0.5;entryY=1;entryDx=0;entryDy=0;" edge="1" parent="mGn2gmwvMU52tjO0ZWeU-27" source="mGn2gmwvMU52tjO0ZWeU-6" target="mGn2gmwvMU52tjO0ZWeU-2">
          <mxGeometry width="160" relative="1" as="geometry">
            <mxPoint x="220" y="320" as="sourcePoint" />
            <mxPoint x="380" y="320" as="targetPoint" />
          </mxGeometry>
        </mxCell>
      </root>
    </mxGraphModel>
  </diagram>
</mxfile>
